<!-- icon666.com - MILLIONS vector ICONS FREE --><svg id="Capa_1" enable-background="new 0 0 512 512" viewBox="0 0 512 512" xmlns="http://www.w3.org/2000/svg"><g><g><path d="m154.37 64.87 20.55 31.265-20.55 32.465-33.627 29.06-25.143-29.06v-63.73z" fill="#cfd7e6"/></g><g><path d="m416.4 64.87v63.73l-24.977 29.06-33.793-29.06-27.91-31.865 27.91-31.865z" fill="#b6bfce"/></g><g><path d="m480.13 192.27v256l-31.865 38.25-31.865-38.25-51.52-127.985 51.52-128.015 31.865-23.99z" fill="#3d4566"/><path d="m95.6 192.27 39.66 128.015-39.66 127.985-31.865 31.865-31.865-31.865v-256l31.865-31.835z" fill="#4d5e80"/><g><path d="m95.6 192.27v256l54.705 31.865 105.695-31.865 111.14-105.97-111.14-150.03-79.64-27.83z" fill="#f3f5f9"/><path d="m416.4 192.27-91.355-27.83-69.045 27.83v256l104.68 38.25 55.72-38.25z" fill="#e1e6f0"/></g><g><path d="m192.27 285.12v163.15l26.57 31.865 37.16-31.865 44.61-71.91-44.61-91.24z" fill="#ff7e41"/><path d="m319.73 285.12h-63.73v163.15l31.865 31.865 31.865-31.865z" fill="#ff445f"/></g><g><path d="m0 448.27v63.73h256l44.61-31.865-44.61-31.865z" fill="#93e98f"/><path d="m256 448.27h256v63.73h-256z" fill="#5ec97f"/></g></g><g><path d="m512 126.833v65.438h-241c-4.4-52.776 86.63-65.438 86.63-65.438z" fill="#2e2e4d"/><path d="m241 192.27h-241v-65.438h154.37c0 .001 94.69 17.328 86.63 65.438z" fill="#3d4566"/></g><g><path d="m154.454 0-.084 126.833 101.63 40.041 50.815-97.354-50.815-69.52z" fill="#f3f5f9"/><path d="m256 0v166.874l101.63-40.041v-126.833z" fill="#e1e6f0"/></g><g><path d="m205.717 126.833h-51.347v30h51.347c19.455 0 35.283 15.897 35.283 35.438h15l16.6-23.99-16.6-17.697c-11.984-14.499-30.075-23.751-50.283-23.751z" fill="#ffdf3f"/><path d="m306.284 126.833c-20.208 0-38.299 9.253-50.284 23.752v41.686h15c0-19.54 15.828-35.438 35.284-35.438h51.346v-30z" fill="#ffbe40"/></g></g></svg>